<?xml version="1.0" standalone="no"?><!DOCTYPE svg PUBLIC "-//W3C//DTD SVG 1.1//EN" "http://www.w3.org/Graphics/SVG/1.1/DTD/svg11.dtd"><svg t="1584863282983" class="icon" viewBox="0 0 1024 1024" version="1.1" xmlns="http://www.w3.org/2000/svg" p-id="649" xmlns:xlink="http://www.w3.org/1999/xlink" width="200" height="200"><defs><style type="text/css"></style></defs><path d="M402.090667 279.893333l169.984-183.159466A224.4608 224.4608 0 0 1 737.6896 22.9376c62.532267 0 121.309867 26.2144 165.410133 73.591467 90.453333 97.621333 90.453333 255.1808 0 352.802133L825.344 533.026133c-20.343467 22.459733-56.251733 26.965333-86.6304-3.072-25.668267-25.463467-27.921067-63.624533-3.754667-90.248533l77.687467-83.626667a124.245333 124.245333 0 0 0 0-166.229333 101.853867 101.853867 0 0 0-75.025067-33.518933c-28.330667 0-54.954667 11.8784-75.229866 33.655466L492.407467 373.213867c-40.618667 44.8512-35.566933 127.112533 10.24 177.834666 20.48 29.013333 15.086933 53.589333-11.264 82.3296-27.648 26.897067-69.905067 20.616533-89.429334-0.682666C311.637333 535.074133 311.637333 377.514667 402.090667 279.893333zM117.418667 585.796267l80.213333-91.136c19.114667-20.753067 56.1152-20.957867 86.4256 8.6016 23.620267 27.170133 25.3952 58.5728 2.116267 84.036266L208.0768 678.638933a124.245333 124.245333 0 0 0-0.136533 166.024534c20.2752 21.845333 46.830933 33.723733 75.1616 33.723733 28.535467-0.068267 55.842133-12.288 75.3664-33.723733l169.984-183.227734c41.301333-45.4656 37.888-125.7472-6.5536-174.830933-22.1184-27.170133-15.496533-58.914133 11.195733-85.128533 24.712533-24.098133 61.576533-29.696 85.742933-6.007467 90.453333 97.621333 90.453333 261.7344 0 359.287467l-169.984 183.296a224.529067 224.529067 0 0 1-165.6832 73.864533 224.4608 224.4608 0 0 1-165.341866-73.728C27.4432 840.704 27.306667 683.349333 117.418667 585.728z" fill="#e6e6e6" p-id="650"></path></svg>