<?xml version="1.0" encoding="utf-8"?>
<!-- Generator: Adobe Illustrator 21.0.2, SVG Export Plug-In . SVG Version: 6.00 Build 0)  -->
<svg version="1.1" xmlns="http://www.w3.org/2000/svg" xmlns:xlink="http://www.w3.org/1999/xlink" x="0px" y="0px"
	 viewBox="0 0 144 144" style="enable-background:new 0 0 144 144;" xml:space="preserve">
<style type="text/css">
	.st0{fill:#009949;}
	.st1{fill:#006837;}
	.st2{fill:#FFFFFF;}
</style>
<g id="图层_1">
	<path class="st0" d="M72,66.8l60-34.6C119.1,12.8,97,0,72,0C47,0,24.9,12.8,12,32.2L72,66.8z"/>
	<path class="st1" d="M76.5,74.6v69.2c37.7-2.3,67.5-33.6,67.5-71.8c0-11.5-2.7-22.4-7.5-32L76.5,74.6z"/>
	<path class="st1" d="M67.5,74.6L7.5,40C2.7,49.6,0,60.5,0,72c0,38.3,29.8,69.5,67.5,71.8V74.6z"/>
	<path class="st2" d="M132,32.2L72,66.8L12,32.2c-1.7,2.5-3.2,5.1-4.5,7.8l60,34.6v69.2c1.5,0.1,3,0.2,4.5,0.2c1.5,0,3-0.1,4.5-0.2
		V74.6l60-34.6C135.1,37.3,133.6,34.7,132,32.2z"/>
	<g>
		<path class="st2" d="M119.4,106.9l-18.3,10.5c-3.3,1.9-6.1-0.1-6.1-4.6V88.5c0-4.5,2.7-9.7,6.1-11.6l18.3-10.5
			c3.3-1.9,6.1,0.1,6.1,4.6v6.4l-7.8,4.5v-4.1l-14.8,8.5V106l14.8-8.5v-4.1l7.8-4.5v6.4C125.4,99.8,122.7,105,119.4,106.9z"/>
	</g>
	<g>
		<path class="st2" d="M42.9,117.4l-18.3-10.5c-3.3-1.9-6.1-7.1-6.1-11.6V71c0-4.5,2.7-6.5,6.1-4.6l18.3,10.5
			c3.3,1.9,6.1,7.1,6.1,11.6v6.4l-7.8-4.5v-4.1l-14.8-8.5v19.7l14.8,8.5V102l7.8,4.5v6.4C48.9,117.3,46.2,119.4,42.9,117.4z"/>
	</g>
</g>
<g id="参考线">
</g>
</svg>
