<?xml version="1.0" encoding="UTF-8"?><!DOCTYPE svg PUBLIC "-//W3C//DTD SVG 1.1//EN" "http://www.w3.org/Graphics/SVG/1.1/DTD/svg11.dtd"><svg xmlns="http://www.w3.org/2000/svg"><defs><style/><style/></defs><symbol id="dev" viewBox="0 0 1024 1024"><path d="M880 128H144c-44.8 0-80 35.2-80 80v608c0 44.8 35.2 80 80 80h736c44.8 0 80-35.2 80-80V208c0-43.2-36.8-80-80-80zm-736 64h736c9.6 0 16 6.4 16 16v158.4H128V208c0-8 8-16 16-16zm736 640H144c-9.6 0-16-6.4-16-16V432h768v384c0 8-8 16-16 16z"/><path d="M209.6 276.8a2.5 2.5 0 1 0 80 0 2.5 2.5 0 1 0-80 0zm115.2 0a2.5 2.5 0 1 0 80 0 2.5 2.5 0 1 0-80 0zm115.2 0a2.5 2.5 0 1 0 80 0 2.5 2.5 0 1 0-80 0zm-70.4 316.8c-6.4-14.4-22.4-20.8-36.8-16l-120 49.6c-9.6 4.8-17.6 14.4-17.6 25.6 0 11.2 6.4 20.8 16 25.6l118.4 54.4c3.2 1.6 8 3.2 11.2 3.2 11.2 0 20.8-6.4 25.6-16 6.4-14.4 0-30.4-14.4-36.8L292.8 656l59.2-24c16-8 24-24 17.6-38.4zm459.2 33.6l-120-49.6c-14.4-6.4-30.4 1.6-36.8 16-6.4 14.4 1.6 30.4 16 36.8l59.2 24-59.2 27.2c-14.4 6.4-20.8 22.4-14.4 36.8 4.8 9.6 14.4 16 25.6 16 3.2 0 8 0 11.2-3.2l118.4-54.4c9.6-4.8 16-14.4 16-25.6 1.6-9.6-6.4-19.2-16-24zm-272-112c-14.4-4.8-30.4 3.2-35.2 17.6l-60.8 185.6c-4.8 14.4 3.2 30.4 17.6 35.2 3.2 1.6 6.4 1.6 8 1.6 11.2 0 22.4-8 27.2-19.2l60.8-185.6c4.8-14.4-3.2-30.4-17.6-35.2z"/></symbol><symbol id="update" viewBox="0 0 1024 1024"><path d="M512 915.831c-223.55 0-407.437-180.282-407.437-407.437 0-219.943 183.888-403.83 407.437-403.83 223.55 0 407.437 180.281 407.437 407.436C915.83 735.55 735.549 915.831 512 915.831zm0-876.169C252.394 39.662 39.662 252.394 39.662 512S252.394 984.338 512 984.338 984.338 771.606 984.338 512C980.732 252.394 771.606 39.662 512 39.662zm0 0"/><path d="M569.69 284.845c0-14.422 10.817-25.24 25.24-25.24h25.239c14.423 0 21.634 10.818 25.24 21.634L775.21 414.648c10.817 10.817 10.817 25.24 0 32.45l-21.634 21.634c-10.816 10.817-25.239 10.817-32.45 0l-75.719-79.324v328.113c0 14.423-10.816 25.24-25.239 25.24h-25.24c-14.422 0-25.239-10.817-25.239-25.24V284.845zm-118.986 454.31c0 14.422-10.817 25.24-25.24 25.24h-25.239c-14.422 0-21.633-10.818-25.24-21.634l-122.59-137.015c-10.818-10.816-10.818-25.239 0-32.45l18.028-18.028c10.816-10.817 25.239-10.817 32.45 0l75.719 79.324V306.479c0-14.423 10.816-25.24 25.239-25.24h25.24c14.422 0 25.239 10.817 25.239 25.24v432.676h-3.606zm0 0"/></symbol></svg>