<?xml version="1.0" encoding="utf-8"?>
<!-- Generator: Adobe Illustrator 21.1.0, SVG Export Plug-In . SVG Version: 6.00 Build 0)  -->
<svg version="1.1" xmlns="http://www.w3.org/2000/svg" xmlns:xlink="http://www.w3.org/1999/xlink" x="0px" y="0px"
	 viewBox="0 0 64 64" style="enable-background:new 0 0 64 64;" xml:space="preserve">
<style type="text/css">
	.st0{opacity:0.2;fill-rule:evenodd;clip-rule:evenodd;}
	.st1{fill-rule:evenodd;clip-rule:evenodd;fill:#FFFFFF;}
</style>
<g>
	<path class="st0" d="M32,2.8C15.9,2.8,2.8,15.9,2.8,32S15.9,61.2,32,61.2S61.2,48.1,61.2,32S48.1,2.8,32,2.8L32,2.8z"/>
	<path class="st1" d="M32,0C14.3,0,0,14.3,0,32s14.3,32,32,32s32-14.3,32-32S49.7,0,32,0z M32,61.2C15.9,61.2,2.8,48.1,2.8,32
		S15.9,2.8,32,2.8S61.2,15.9,61.2,32S48.1,61.2,32,61.2z"/>
	<path class="st1" d="M30.3,11.2l-2.1,0.6L36.1,39c-5.6-0.8-10.5,4-10.1,8.7c0.1,1.6,1.3,2.9,2,3.5c4,3.4,9.4-0.2,11.3-5.7
		c0.8-2.3,0.4-4-0.8-8.1l-4.9-16.9c2.5-0.8,7.7,1,9.4,3.5c1.1,1.6,1.8,3.9,1.4,5.8c-0.1,0.5-0.4,2,0,1.7c0.7-0.6,0.9-1.2,1.3-2.4
		c0.3-1.1,0.4-2.7,0.3-3.7C44.4,15.4,33.3,18.3,30.3,11.2L30.3,11.2z"/>
</g>
</svg>
