<?xml version="1.0" encoding="utf-8"?>
<svg version="1.1" xmlns="http://www.w3.org/2000/svg" x="0px" y="0px"
	 viewBox="0 0 64 64">
<style type="text/css">
	.st0{fill-rule:evenodd;clip-rule:evenodd;fill:#FFFFFF;}
</style>
<g>
	<path class="st0" d="M18.6,20.9V43l0.1,0.1L34,55V9L18.6,20.9L18.6,20.9z M46.2,12c-1.1-0.6-1.4-2.1-0.8-3.2
		c0.7-1.1,2.1-1.4,3.1-0.8c4.1,2.4,7.5,6,9.8,10.2C60.7,22.3,62,27,62,32c0,4.8-1.2,9.5-3.6,13.7c-2.3,4.2-5.7,7.7-9.8,10.2
		c-1.1,0.7-2.5,0.3-3.1-0.8c-0.6-1.1-0.3-2.5,0.8-3.2c3.4-2.1,6.2-5,8.2-8.5c1.9-3.3,3-7.3,3-11.5c0-4.1-1.1-8.1-3-11.4
		C52.5,17,49.7,14.1,46.2,12L46.2,12z M16.5,16.8L34.8,2.6C35.2,2.2,35.7,2,36.3,2c1.3,0,2.3,1,2.3,2.3v15.3
		c2.1,0.9,3.9,2.3,5.3,4.1c1.8,2.3,2.9,5.2,2.9,8.3c0,3.1-1.1,6-2.9,8.3c-1.3,1.8-3.2,3.2-5.3,4.1v15.3c0,0.5-0.2,1-0.5,1.4
		c-0.8,1-2.2,1.2-3.2,0.4L16.5,47.2H4.3c-1.3,0-2.3-1-2.3-2.3V19.1c0-1.3,1-2.3,2.3-2.3H16.5L16.5,16.8L16.5,16.8z M38.6,22.6v18.7
		c1.3-0.7,2.3-1.6,3.2-2.7c1.4-1.8,2.3-4.1,2.3-6.6c0-2.5-0.9-4.8-2.3-6.6C40.9,24.3,39.8,23.4,38.6,22.6L38.6,22.6z"/>
</g>
</svg>
